<svg width="200" height="200" viewBox="0 0 200 200" fill="none" xmlns="http://www.w3.org/2000/svg">
<path d="M75 117.973C75 121.816 76.5259 125.502 79.2424 128.221L79.9401 128.919C82.6597 131.641 86.35 133.171 90.1975 133.171H109.855C113.701 133.171 117.388 131.643 120.108 128.923L120.753 128.278C123.472 125.559 125 121.871 125 118.026V97.6709C125 89.6626 131.492 83.1707 139.5 83.1707H160.5C168.508 83.1707 175 89.6626 175 97.6709V118.671C175 126.678 168.508 133.171 160.5 133.171H140.255C136.412 133.171 132.726 134.697 130.007 137.413L129.252 138.168C126.529 140.888 125 144.578 125 148.425V168.671C125 176.678 118.508 183.171 110.5 183.171H89.5C81.4918 183.171 75 176.678 75 168.671V148.368C75 144.52 73.4706 140.83 70.7485 138.111L70.0502 137.413C67.3313 134.697 63.6451 133.171 59.8017 133.171H39.5C31.4918 133.171 25 126.678 25 118.671V97.6709C25 89.6626 31.4918 83.1707 39.5 83.1707H60.5C68.5082 83.1707 75 89.6626 75 97.6709V117.973ZM75 52.1668C75 60.1749 68.5082 66.6668 60.5 66.6668H39.5C31.4918 66.6668 25 60.1749 25 52.1668V31.1667C25 23.1586 31.4918 16.6667 39.5 16.6667H60.5C68.5082 16.6667 75 23.1586 75 31.1667V52.1668ZM175 52.1668C175 60.1749 168.508 66.6668 160.5 66.6668H139.5C131.492 66.6668 125 60.1749 125 52.1668V31.1667C125 23.1586 131.492 16.6667 139.5 16.6667H160.5C168.508 16.6667 175 23.1586 175 31.1667V52.1668Z" fill="white"/>
</svg>
